<?xml version="1.0" standalone="no"?>
<!DOCTYPE svg PUBLIC "-//W3C//DTD SVG 20010904//EN"
 "http://www.w3.org/TR/2001/REC-SVG-20010904/DTD/svg10.dtd">
<svg version="1.0" xmlns="http://www.w3.org/2000/svg"
 width="236.000000pt" height="339.000000pt" viewBox="0 0 236.000000 339.000000"
 preserveAspectRatio="xMidYMid meet">
<metadata>
Created by potrace 1.14, written by Peter Selinger 2001-2017
</metadata>
<g transform="translate(0.000000,339.000000) scale(0.100000,-0.100000)"
fill="#000000" stroke="none">
<path d="M490 3380 c-36 -4 -83 -16 -105 -27 -89 -46 -176 -179 -191 -291 -7
-55 9 -171 31 -211 7 -14 34 -47 60 -73 56 -56 115 -74 207 -64 l60 6 -16 -23
c-31 -42 -95 -182 -111 -242 -35 -131 -26 -257 32 -460 38 -135 67 -192 124
-239 30 -25 31 -28 16 -44 -10 -9 -17 -12 -17 -6 0 6 -12 16 -26 22 -28 13
-52 5 -91 -30 l-21 -20 -26 39 c-14 21 -30 63 -36 93 -17 88 -55 129 -103 111
-32 -12 -36 -24 -29 -88 6 -67 -10 -70 -67 -13 -41 41 -59 47 -92 30 -28 -15
-25 -68 6 -110 39 -53 34 -67 -35 -97 -49 -21 -60 -30 -58 -46 5 -34 54 -62
107 -62 36 0 56 -6 84 -27 19 -16 40 -28 45 -28 6 0 13 -7 16 -16 3 -8 27 -24
53 -36 27 -11 62 -30 78 -43 50 -37 91 -54 177 -75 75 -18 88 -18 135 -6 l52
14 5 -37 c3 -20 4 -67 2 -106 -3 -109 31 -281 79 -390 14 -30 25 -72 25 -93 1
-89 56 -246 111 -319 22 -30 39 -57 36 -59 -2 -3 -14 -6 -26 -9 -50 -9 -80
-38 -91 -86 -20 -84 -5 -114 89 -175 43 -28 48 -29 175 -29 110 1 138 4 177
22 86 39 159 124 159 187 0 14 -13 40 -29 58 -22 25 -28 40 -24 61 3 15 -2 55
-12 89 -18 64 -14 139 8 155 15 12 88 33 113 33 11 0 48 -28 82 -63 52 -52 62
-68 62 -97 1 -43 50 -102 99 -119 40 -13 111 -14 164 -2 89 21 183 120 231
243 25 65 28 83 24 159 -3 70 -9 94 -31 132 -32 53 -49 65 -110 73 -46 7 -117
-10 -117 -27 0 -18 -18 -9 -27 14 -33 90 -119 180 -186 194 -17 3 -38 20 -53
42 -30 43 -72 171 -80 245 l-6 53 38 7 c79 14 240 118 303 197 22 28 41 55 41
60 0 4 13 10 30 14 37 8 76 39 95 75 8 16 24 31 34 35 11 3 32 31 47 61 21 43
31 54 51 54 31 0 79 25 87 45 3 9 3 50 -1 91 -5 67 -9 77 -30 87 -18 8 -33 7
-58 -2 -28 -10 -105 -13 -105 -4 0 1 9 17 20 35 24 39 25 67 6 113 -12 29 -20
35 -44 35 -37 0 -60 -26 -67 -75 -7 -46 -24 -95 -34 -95 -3 1 -22 14 -41 30
-40 35 -59 37 -90 12 -18 -15 -21 -24 -16 -49 4 -18 14 -37 22 -44 21 -17 18
-25 -25 -65 -22 -20 -47 -51 -56 -70 -12 -25 -22 -34 -40 -34 -14 0 -25 3 -25
6 0 3 11 48 25 100 34 128 34 250 0 367 -29 100 -65 184 -92 212 -23 24 -53
67 -53 76 0 3 20 3 44 -1 79 -12 170 10 215 52 55 52 71 98 71 216 0 93 -3
109 -27 160 -36 72 -102 138 -182 181 -60 31 -68 33 -140 29 -99 -6 -165 -39
-213 -105 -70 -96 -85 -196 -44 -296 21 -50 22 -58 8 -52 -9 4 -53 14 -97 22
-152 28 -349 12 -445 -37 -21 -11 -41 -20 -44 -20 -3 0 9 30 26 66 27 59 30
73 26 137 -5 82 -44 180 -86 220 -62 58 -132 78 -242 67z m840 -493 c107 -39
215 -188 256 -352 9 -38 19 -118 22 -176 4 -98 2 -111 -27 -197 -17 -50 -31
-96 -31 -101 0 -5 12 -11 27 -13 65 -7 97 -132 53 -203 -42 -68 -173 -147
-266 -161 -48 -7 -61 -16 -102 -71 -31 -42 -88 -63 -166 -63 -53 0 -69 4 -102
28 -21 16 -45 36 -53 45 -9 12 -29 17 -62 17 -101 0 -289 99 -343 181 -56 84
-26 185 67 220 33 13 33 22 5 85 -37 86 -48 144 -48 274 0 144 14 206 62 288
72 121 163 179 295 189 l72 6 32 -36 31 -35 36 41 c64 70 121 78 242 34z m811
-548 c17 -27 10 -101 -12 -125 -12 -12 -18 -27 -14 -33 8 -14 100 -14 125 -1
12 7 27 7 45 0 23 -9 26 -14 23 -52 -2 -34 -7 -44 -23 -46 -11 -2 -24 -9 -30
-14 -7 -8 -5 -9 5 -6 60 20 58 21 55 -18 -2 -40 -14 -51 -65 -60 -54 -9 -57
-11 -64 -40 -10 -39 -43 -78 -73 -86 -67 -18 -185 37 -218 103 -19 36 -19 96
0 133 14 27 14 32 -5 71 -25 52 -18 75 23 75 41 0 87 -44 87 -82 0 -15 5 -28
10 -28 6 0 10 14 10 30 0 17 7 44 15 59 8 16 17 48 21 72 3 24 13 49 22 56 19
15 51 11 63 -8z m-266 -365 c11 -48 85 -105 163 -125 57 -14 63 -25 30 -57
-29 -27 -70 -42 -114 -42 -19 0 -34 -4 -34 -9 0 -6 9 -8 20 -6 83 16 -111
-169 -238 -227 -23 -10 -61 -23 -85 -27 -29 -5 -41 -12 -38 -22 28 -106 23
-132 -23 -111 -44 20 -56 51 -63 166 -3 59 -10 109 -14 112 -7 4 -5 -48 6
-151 7 -61 -11 -234 -27 -252 -6 -7 -27 -13 -47 -13 -28 0 -44 7 -65 29 -42
44 -56 107 -57 260 -1 128 0 136 21 153 12 10 32 18 45 18 12 0 42 7 65 15 57
20 60 20 55 -15 -2 -16 1 -30 6 -30 5 0 9 12 9 28 0 36 7 45 67 90 55 41 78
67 137 155 32 47 43 57 67 57 26 0 29 -4 30 -32 1 -28 3 -26 9 13 9 50 23 83
49 113 15 17 16 16 19 -25 1 -24 4 -53 7 -65z m-1548 -72 c15 -10 42 -73 36
-88 -8 -24 61 -144 83 -144 4 0 19 11 36 25 39 33 75 33 88 -1 7 -18 6 -33 -5
-54 -20 -38 -47 -52 -106 -54 -27 0 -49 -4 -49 -8 0 -5 9 -8 20 -8 11 0 20 -4
20 -8 0 -15 -44 -50 -84 -66 -63 -26 -108 -21 -158 18 -24 18 -42 39 -40 46 3
11 0 11 -13 0 -22 -18 -102 -7 -127 18 -26 26 -18 37 41 57 69 23 79 55 35
112 -16 21 -24 43 -22 61 2 23 8 28 37 30 28 3 38 -2 63 -32 50 -61 95 -41 83
38 -4 24 -4 49 0 55 7 13 44 14 62 3z m388 -226 l81 -39 -17 -51 c-19 -55 -34
-158 -32 -218 1 -36 -1 -38 -39 -49 -22 -6 -52 -11 -67 -11 -62 -1 -237 62
-256 92 -4 6 8 10 29 10 20 0 36 5 36 11 0 7 -12 9 -34 5 -42 -8 -121 10 -138
32 -11 13 -10 15 4 9 31 -11 131 29 163 67 17 19 43 38 58 41 36 9 75 47 83
82 7 29 33 66 43 61 3 -2 42 -21 86 -42z m230 -66 c13 -11 15 -23 11 -54 -3
-23 -10 -97 -16 -165 -11 -146 -27 -184 -79 -189 -44 -4 -78 20 -90 65 -21 76
-8 259 25 333 l15 36 58 -6 c32 -3 66 -12 76 -20z m325 -68 c0 -92 -6 -96
-152 -103 -167 -8 -162 -10 -154 64 3 33 8 62 11 65 2 3 16 -3 30 -12 57 -38
159 -29 226 18 19 13 35 25 37 25 1 1 2 -25 2 -57z m26 -246 c4 -15 23 -45 43
-65 35 -37 43 -39 108 -32 21 2 40 53 42 111 1 30 6 59 12 65 6 5 9 5 9 -3 0
-14 52 -42 78 -42 14 0 23 -14 36 -57 10 -32 29 -75 42 -95 13 -21 24 -39 24
-41 0 -3 -20 -12 -43 -21 -24 -9 -55 -28 -68 -43 l-24 -26 35 25 c53 39 107
52 158 39 51 -14 95 -57 144 -140 l37 -63 -24 -37 c-13 -20 -50 -83 -81 -141
-31 -58 -72 -133 -91 -167 l-34 -63 -56 60 c-63 69 -121 114 -111 88 5 -12 -4
-18 -40 -27 -57 -14 -122 -41 -122 -52 0 -4 9 -5 21 -2 19 5 20 3 13 -32 -4
-25 0 -63 12 -111 l18 -74 -24 -25 c-35 -37 -107 -55 -199 -50 -169 9 -241 68
-299 245 -17 52 -33 115 -37 140 l-6 45 21 -25 c27 -31 25 -26 -32 90 -25 52
-51 120 -57 150 -6 30 -14 66 -17 80 -3 14 -8 72 -11 130 l-6 104 32 -27 c82
-68 151 4 151 158 l0 60 134 -3 c120 -2 135 -1 157 17 l24 19 12 -66 c7 -37
15 -80 19 -96z m841 -388 c24 -22 58 -87 50 -95 -3 -2 -14 0 -25 6 -20 11 -60
4 -99 -18 -11 -5 -55 -79 -98 -163 -78 -151 -138 -248 -156 -248 -5 0 -9 -5
-9 -12 0 -7 17 4 38 24 37 35 38 36 145 41 59 3 107 1 107 -3 0 -5 -24 -25
-52 -46 -46 -33 -62 -38 -128 -44 -99 -8 -138 1 -177 44 -48 53 -47 60 39 216
14 25 47 86 73 135 89 167 126 200 215 190 35 -4 62 -13 77 -27z m62 -185 c2
-71 -28 -165 -70 -225 -23 -31 -86 -48 -184 -48 l-65 0 80 157 c44 87 89 166
99 176 26 27 80 37 112 21 24 -12 26 -19 28 -81z m-754 -440 c50 -57 23 -146
-58 -201 -67 -44 -94 -53 -196 -59 -121 -7 -191 11 -250 65 -45 41 -55 72 -39
129 20 76 95 100 197 63 80 -30 218 -26 272 7 44 28 46 28 74 -4z"/>
<path d="M1170 2591 c-54 -57 -64 -104 -57 -279 3 -81 9 -155 12 -164 6 -16 0
-18 -49 -18 l-55 0 1 63 c2 100 -18 257 -43 321 -40 108 -90 133 -146 74 -47
-51 -53 -69 -53 -175 1 -113 18 -175 73 -267 20 -33 34 -63 32 -67 -3 -4 19 2
47 13 35 13 82 20 137 22 79 2 87 0 139 -31 60 -36 70 -40 53 -19 -10 12 -7
22 13 53 45 68 65 148 66 259 0 88 -3 106 -26 152 -23 47 -77 102 -99 102 -4
0 -25 -17 -45 -39z m125 -53 c28 -49 30 -62 31 -158 2 -116 -16 -190 -63 -261
-21 -32 -28 -37 -44 -28 -24 12 -24 14 1 47 11 15 23 44 26 63 12 72 -51 135
-95 95 -10 -9 -21 -16 -24 -16 -4 0 -7 45 -7 99 0 111 17 165 65 213 25 25 29
26 54 13 15 -7 40 -37 56 -67z m-390 66 c40 -10 89 -140 98 -261 5 -62 5 -62
-16 -49 -29 18 -64 5 -77 -29 -16 -43 -12 -100 10 -128 20 -25 20 -26 2 -36
-17 -9 -24 -3 -56 49 -64 103 -83 189 -71 315 5 60 12 78 36 109 31 37 39 40
74 30z"/>
<path d="M990 2071 c-52 -16 -90 -42 -96 -66 -17 -69 33 -115 135 -125 136
-12 201 20 201 100 0 31 -6 43 -27 58 -52 37 -150 52 -213 33z"/>
<path d="M695 1931 c-22 -10 -47 -26 -55 -36 -14 -18 -14 -18 11 -2 35 23 58
18 110 -27 57 -49 148 -102 196 -115 103 -27 241 -12 342 37 57 28 57 28 29
-8 -64 -84 -65 -85 -80 -72 -18 14 -89 19 -109 7 -7 -5 -43 -8 -79 -7 -43 2
-75 -3 -95 -14 -28 -14 -31 -14 -47 6 -10 12 -18 27 -18 34 0 6 -28 31 -63 56
-34 25 -77 60 -94 79 -18 19 -33 30 -33 24 0 -13 63 -71 130 -119 28 -20 50
-41 50 -47 1 -19 41 -59 93 -95 60 -40 147 -53 193 -29 42 23 97 77 130 128
15 24 59 77 98 116 l70 73 23 -22 c13 -12 25 -19 28 -16 10 10 -60 55 -95 62
l-35 6 29 -13 29 -13 -59 -52 c-104 -93 -207 -128 -355 -120 -72 5 -96 10
-147 37 -79 43 -179 131 -160 142 7 5 21 6 32 3 12 -4 16 -2 12 5 -10 16 -35
13 -81 -8z m556 -238 c6 -6 -7 -24 -38 -49 -44 -36 -52 -39 -108 -39 -49 1
-69 6 -108 31 -42 27 -46 32 -33 44 26 21 102 25 131 6 21 -14 25 -14 25 -2 0
8 8 17 18 20 25 7 102 0 113 -11z"/>
</g>
</svg>
